<svg width="238" height="307" viewBox="0 0 238 307" fill="none" xmlns="http://www.w3.org/2000/svg">
<path fill-rule="evenodd" clip-rule="evenodd" d="M123 24.2031C133.079 24.2031 142.874 25.4252 152.249 27.7304L146.958 49.7736C139.741 48.0919 132.223 47.2031 124.5 47.2031C69.5477 47.2031 25 92.1985 25 147.703C25 194.691 56.9256 234.147 100.062 245.15L94.3789 268.828C40.2513 255.824 0 206.752 0 148.203C0 79.7198 55.069 24.2031 123 24.2031ZM215.343 188.765C200.753 221.645 169.179 245.163 131.896 247.93L126.338 272.158C176.163 270.82 218.601 239.611 236.676 195.647L215.343 188.765ZM217.023 110.661C208.8 89.7245 193.814 72.2421 174.787 60.9641L179.989 38.2872C205.748 51.8885 226.135 74.4226 237.102 101.809L217.023 110.661Z" fill="#9F9F9F"/>
<path d="M167 0L178.781 2.70294L109.164 306.178L97.5003 303.776L167 0Z" fill="#07673C"/>
<path d="M122 203.703L148.5 85.0616L116 120.132L125 125.062L91.5 153.132L107.5 161.562L53.4999 200.562L122 203.703Z" fill="#07673C"/>
</svg>
